<?xml version="1.0" encoding="utf-8"?>
<!-- Generator: Adobe Illustrator 25.0.1, SVG Export Plug-In . SVG Version: 6.00 Build 0)  -->
<svg version="1.0" id="layer" xmlns="http://www.w3.org/2000/svg" xmlns:xlink="http://www.w3.org/1999/xlink" x="0px" y="0px"
	 viewBox="0 0 652 426" style="enable-background:new 0 0 652 426;" xml:space="preserve">
<style type="text/css">
	.st0{fill:#FFFFFF;}
	.st1{fill:#03316C;}
	.st2{fill:#fff;}
</style>
<path class="st0" d="M102.7,158.8l-43.4,25.1v50.1l43.4,25.1l43.4-25.1v-50.1L102.7,158.8z M102.7,158.8l-43.4,25.1v50.1l43.4,25.1
	l43.4-25.1v-50.1L102.7,158.8z"/>
<path class="st1" d="M119.8,239.4h-6.2l-7.4-6.8v-3.5l7.7-7.3v-11.6l10-6.5l11.4,8.6L119.8,239.4z M94.2,221.2l1.1-10.9l-3.7-9.7
	h22.1l-3.7,9.7l1,10.9h-8.5H94.2z M99.3,232.6l-7.4,6.9h-6.3L70,212.4l11.5-8.5l10.1,6.4v11.6l7.7,7.3
	C99.3,229.2,99.3,232.6,99.3,232.6z M85.5,180.5h34.2l4.1,17.4H81.5L85.5,180.5z M102.7,158.8l-43.4,25.1v50.1l43.4,25.1l43.4-25.1
	v-50.1L102.7,158.8z"/>
<path class="st2" d="M194.8,232.1c-11.5,0-19.9-9-19.9-20s8.5-20.3,20-20.3c7.3,0,11.8,2.7,15.4,6.6l-5.5,5.9
	c-2.7-2.9-5.6-4.8-10-4.8c-6.4,0-11.1,5.6-11.1,12.4c0,7,4.8,12.5,11.6,12.5c4.2,0,7.2-2,10-4.8l5.3,5.3
	C206.7,229.1,202.3,232.1,194.8,232.1"/>
<path class="st2" d="M227.3,232.1h-8.9v-40.2h8.9v9.4c2.4-5.7,6.9-9.7,13.7-9.4v9.4h-0.5c-7.7,0-13.1,5-13.1,15.3L227.3,232.1
	L227.3,232.1z"/>
<polygon class="st2" points="287.3,191.8 267.8,242.9 258.8,242.9 263.1,232.1 246.3,191.8 255.7,191.8 267.1,221.6 278.1,191.8 "/>
<path class="st2" d="M313.4,199.5c-6,0-11.2,4.9-11.2,12.4c0,7.6,5.3,12.4,11.2,12.4c6.1,0,11-4.8,11-12.4S319.4,199.5,313.4,199.5
	 M315.4,232c-6.3,0-10.4-3.2-13-6.8v17.7h-8.9v-51.1h8.9v7.2c2.9-4,6.9-7.2,13-7.2c9.1,0,18,7.2,18,20.1
	C333.4,224.7,324.6,232,315.4,232"/>
<path class="st2" d="M352.8,200.2v19c0,3.4,1.7,4.8,4.8,4.8h3.5v7.9H355c-6.4,0-11-2.9-11-11.3v-20.4h-4.9v-7.6h4.9V182h8.9v10.6
	h8.3v7.6L352.8,200.2L352.8,200.2z"/>
<path class="st2" d="M389,199.5c-7.1,0-11.7,5.6-11.7,12.4c0,6.9,4.9,12.5,11.7,12.5c7.1,0,11.7-5.6,11.7-12.4
	C400.9,205.2,396,199.5,389,199.5 M389,232.1c-11.7,0-20.4-9-20.4-20c0-11.1,8.8-20.3,20.6-20.3c11.8,0,20.5,9,20.5,20.1
	C409.7,222.9,401,232.1,389,232.1"/>
<path class="st2" d="M494.3,199.5c-7.1,0-11.7,5.6-11.7,12.4c0,6.9,4.9,12.5,11.7,12.5c7.1,0,11.7-5.6,11.7-12.4
	C506.2,205.2,501.3,199.5,494.3,199.5 M494.3,232.1c-11.7,0-20.4-9-20.4-20c0-11.1,8.8-20.3,20.6-20.3s20.5,9,20.5,20.1
	C515,222.9,506.2,232.1,494.3,232.1"/>
<path class="st2" d="M567.6,191.8c8.4,0,13.6,5.3,13.6,14.8V232h-8.9v-22.8c0-6.2-2.9-9.4-7.8-9.4c-4.8,0-8.3,3.4-8.3,9.6v22.7h-8.9
	v-22.9c0-6-3-9.4-7.8-9.4c-4.9,0-8.3,3.7-8.3,9.7v22.6h-8.9v-40.3h8.9v6.6c2.5-3.4,5.8-6.6,11.7-6.6c5.6,0,9.4,2.7,11.5,6.8
	C557.7,194.5,561.7,191.8,567.6,191.8"/>
<polygon class="st2" points="426,223.9 426,228.5 425.7,228.9 421.8,231.1 421.3,231.1 417.4,228.9 417.2,228.5 417.2,223.9 
	417.4,223.5 421.3,221.3 421.8,221.3 425.7,223.5 "/>
<path class="st2" d="M452.8,232c-11.5-0.3-19.7-9.4-19.6-20.4c0.2-11,8.9-20.1,20.4-19.8c7.3,0.2,11.8,3,15.3,7l-5.6,5.8
	c-2.6-2.9-5.5-5-9.9-5c-6.4-0.1-11.2,5.3-11.3,12.2c-0.2,7,4.5,12.6,11.3,12.7c4.2,0.1,7.3-1.8,10.1-4.6l5.2,5.4
	C464.9,229.3,460.4,232.2,452.8,232"/>
</svg>
