<svg id="图层_1" data-name="图层 1" xmlns="http://www.w3.org/2000/svg" viewBox="0 0 720 405"><defs>
<style>.cls-1{fill:#2354e6;}.cls-2{fill:#17e6a1;}</style>
</defs>
<path fill="#fff" d="M403.54,172.19H392.85v11.5h-6.4v10.09h6.4v26.4a19.59,19.59,0,0,0,1,6.82,10.66,10.66,0,0,0,2.91,4.26,11,11,0,0,0,4.39,2.45,23.9,23.9,0,0,0,11.28,0,19,19,0,0,0,4.23-1.68v-8.12a17.09,17.09,0,0,1-6.32,1.34,6.13,6.13,0,0,1-4.95-1.68c-1.23-1.16-1.88-2.68-1.88-5.24V193.78h13.15V183.69H403.54Zm-33.63,15.08a26.1,26.1,0,1,0,0,42.12V233H380.6V183.65H369.91ZM354.49,223.7a15.42,15.42,0,1,1,15.42-15.41A15.41,15.41,0,0,1,354.49,223.7Zm-58.58-25v11.9H312a18.92,18.92,0,0,1-18.9,14.56,20.51,20.51,0,1,1,15.49-34l9.21-7.52A32.4,32.4,0,1,0,293.09,237a31,31,0,0,0,22.52-9.11,31.86,31.86,0,0,0,8.79-19,72.93,72.93,0,0,0,.15-10.24Zm240.48-16.48a26.11,26.11,0,1,0,26.11,26.11A26.11,26.11,0,0,0,536.39,182.18Zm0,41.52a15.42,15.42,0,1,1,15.42-15.41A15.41,15.41,0,0,1,536.39,223.7Zm-43.6,9.3h11.5V188.75h-11.5Zm-17.57,0h11.5V221.5h-11.5Zm-29.14-50.82A26.11,26.11,0,1,0,469,220.79l-9.65-4.69a15.42,15.42,0,0,1-28.19-3.87H461v0h10.92a26.12,26.12,0,0,0-25.81-30.07Zm-14.43,20.67a15.41,15.41,0,0,1,28.85,0Zm61.14-19.16h11.5v-11.5h-11.5Z"/>
<path class="cls-1" d="M203.86,228a25.5,25.5,0,0,1,0-51V156.14a46.36,46.36,0,1,0,46.36,46.36H229.36A25.5,25.5,0,0,1,203.86,228Z"/><rect class="cls-2" x="203.86" y="177" width="25.5" height="25.5"/>
</svg>