<?xml version="1.0" encoding="UTF-8"?>
<svg xmlns:xodm="http://www.corel.com/coreldraw/odm/2003" xmlns="http://www.w3.org/2000/svg" xmlns:xlink="http://www.w3.org/1999/xlink" version="1.1" id="Layer_1" x="0px" y="0px" viewBox="0 0 2500 583" style="enable-background:new 0 0 2500 583;" xml:space="preserve">
<style type="text/css">
	.st0{fill:#FFBE40;}
</style>
<g id="Layer_x0020_1">
	<g id="_1939735992704">
		<path id="形状_756" class="st0" d="M1286.5,400.7c0.4-17.4,14.8-31.1,32.2-30.7c17.4,0.4,31.1,14.8,30.7,32.2    c-0.4,17-14.4,30.7-31.5,30.7C1300.6,432.6,1286.5,418.2,1286.5,400.7z M1673.6,150v63.7h-95.9c-32.2,0-54.8,7.4-67,22.2    c-11.9,14.1-17.8,35.2-17.8,63.7c0,31.8,9.6,55.2,29.3,70c7.8,5.6,16.7,9.6,25.9,11.9c13,2.6,25.9,3.7,39.3,3.3h86.3v63.7h-109.6    c-23.7,0.7-47.4-2.2-70-9.3c-17.8-6.3-33.3-17.4-45.5-31.8c-25.9-30.4-39.3-69.3-37.8-109.3c0-53.3,14.8-93,44.8-118.9    c12.2-10.7,27-18.5,43-22.6c21.5-4.8,43.3-7,65.2-6.7H1673.6L1673.6,150z M1869.1,146c53.7,0,93.7,15.9,118.9,47.8    c24.4,31.1,36.7,70,35.2,109.6c1.9,41.9-14.4,82.6-44.4,111.5c-27,25.2-64.1,38.1-111.1,38.1c-48.5,0-86.7-14.4-114.4-43    c-25.5-25.9-38.1-63.3-38.1-113c-1.1-38.1,11.8-75.2,36.7-104.1C1779.1,161.9,1818,146.3,1869.1,146L1869.1,146z M1869.8,208.2    c-48.1,0-72.2,30.7-72.2,91.8c-1.1,19.6,3,39.3,11.8,57c12.6,21.9,35.9,34.4,61.1,33c47.4,0,71.1-30.4,71.1-91.5    C1941.7,239.3,1917.6,209.3,1869.8,208.2L1869.8,208.2z M2082.8,150h294.4c20.4-0.7,41.1,1.5,61.1,5.9    c13.3,3.7,25.6,11.1,35.2,21.5c18.5,22.6,28.2,51.5,26.3,81.1v190h-80v-177c0.4-10-0.4-20-1.9-30c-1.1-5.9-4.1-11.1-8.5-15.2    c-10.4-8.9-24.1-13.7-37.8-12.6H2329v234.8h-80V213.7h-86.3v234.8h-80L2082.8,150L2082.8,150L2082.8,150z M829.2,299.3l-115.5-153    h91.8l69.3,101.8l74.8-101.8h90.7L921,299.3l119.3,155.9h-88.1l-77.4-105.9l-75.9,105.9h-89.3L829.2,299.3L829.2,299.3z     M1157.3,201.5h-135.2l47-55.2h280v55.2h-116.7v254.1h-74.8L1157.3,201.5L1157.3,201.5z"></path>
		<path id="形状_756_拷贝" class="st0" d="M1286.5,400.7c0.4-17.4,14.8-31.1,32.2-30.7c17.4,0.4,31.1,14.8,30.7,32.2    c-0.4,17-14.4,30.7-31.5,30.7C1300.6,432.6,1286.5,418.2,1286.5,400.7z"></path>
		<path id="形状_519" class="st0" d="M293.7,583C132.6,584.1,1.1,454.4,0,293.7C-1.1,132.6,128.5,1.2,289.2,0    c161.1-1.1,292.6,128.1,293.7,289.2v2.2C583.3,451.9,454,582.2,293.7,583L293.7,583z M293.7,43.4C156.7,42.6,44.8,152.6,44.1,290    c-0.7,137,109.2,248.9,246.6,249.6c137,0.7,248.9-109.2,249.6-246.3v-1.9C540.3,154.8,430.3,44.1,293.7,43.4L293.7,43.4    L293.7,43.4z M304,251.5L360,183c5.9-7,4.8-17.8-2.2-23.7c-3-2.2-6.7-3.7-10.4-3.7l0,0c-4.8,0-9.6,2.2-12.6,5.9l-51.8,63.3    l-52.2-63.3c-3-3.7-7.8-5.9-12.6-5.9h-43c-9.3,0-16.7,7.8-16.7,17c0,3.7,1.5,7.4,3.7,10.4l77.4,94.4l-98.5,120.7    c-5.9,7-5.6,17.4,1.5,23.3c7,5.9,17.4,5.6,23.3-1.5l0.4-0.4l94.8-115.9L304,251.5z M433.7,155.6c-4.8,0-9.6,2.2-12.6,5.9    l-94.4,115.9l-43,52.6l-55.9,68.5c-5.9,7-5.2,17.4,1.9,23.3c7,5.9,17.4,5.2,23.3-1.9l51.8-63.3l51.8,63.3c3,3.7,7.8,5.9,12.6,5.9    h43c9.3,0,16.7-7.4,16.7-16.7c0-4.1-1.5-7.8-4.1-10.7l-77-94.4l98.5-120.7c5.9-7.4,4.4-17.8-2.6-23.7    C441.1,157.1,437.4,156,433.7,155.6L433.7,155.6z"></path>
	</g>
</g>
</svg>
